<svg id="visual" viewBox="0 0 900 600" width="900" height="600" xmlns="http://www.w3.org/2000/svg" xmlns:xlink="http://www.w3.org/1999/xlink" version="1.1"><rect x="0" y="0" width="900" height="600" fill="#ffffff"></rect><defs><linearGradient id="grad1_0" x1="33.3%" y1="0%" x2="100%" y2="100%"><stop offset="20%" stop-color="#888277" stop-opacity="1"></stop><stop offset="80%" stop-color="#888277" stop-opacity="1"></stop></linearGradient></defs><defs><linearGradient id="grad1_1" x1="33.3%" y1="0%" x2="100%" y2="100%"><stop offset="20%" stop-color="#888277" stop-opacity="1"></stop><stop offset="80%" stop-color="#a5a097" stop-opacity="1"></stop></linearGradient></defs><defs><linearGradient id="grad1_2" x1="33.3%" y1="0%" x2="100%" y2="100%"><stop offset="20%" stop-color="#c2bfb9" stop-opacity="1"></stop><stop offset="80%" stop-color="#a5a097" stop-opacity="1"></stop></linearGradient></defs><defs><linearGradient id="grad1_3" x1="33.3%" y1="0%" x2="100%" y2="100%"><stop offset="20%" stop-color="#c2bfb9" stop-opacity="1"></stop><stop offset="80%" stop-color="#e0dedb" stop-opacity="1"></stop></linearGradient></defs><defs><linearGradient id="grad1_4" x1="33.3%" y1="0%" x2="100%" y2="100%"><stop offset="20%" stop-color="#ffffff" stop-opacity="1"></stop><stop offset="80%" stop-color="#e0dedb" stop-opacity="1"></stop></linearGradient></defs><defs><linearGradient id="grad2_0" x1="0%" y1="0%" x2="66.7%" y2="100%"><stop offset="20%" stop-color="#888277" stop-opacity="1"></stop><stop offset="80%" stop-color="#888277" stop-opacity="1"></stop></linearGradient></defs><defs><linearGradient id="grad2_1" x1="0%" y1="0%" x2="66.7%" y2="100%"><stop offset="20%" stop-color="#a5a097" stop-opacity="1"></stop><stop offset="80%" stop-color="#888277" stop-opacity="1"></stop></linearGradient></defs><defs><linearGradient id="grad2_2" x1="0%" y1="0%" x2="66.7%" y2="100%"><stop offset="20%" stop-color="#a5a097" stop-opacity="1"></stop><stop offset="80%" stop-color="#c2bfb9" stop-opacity="1"></stop></linearGradient></defs><defs><linearGradient id="grad2_3" x1="0%" y1="0%" x2="66.7%" y2="100%"><stop offset="20%" stop-color="#e0dedb" stop-opacity="1"></stop><stop offset="80%" stop-color="#c2bfb9" stop-opacity="1"></stop></linearGradient></defs><defs><linearGradient id="grad2_4" x1="0%" y1="0%" x2="66.7%" y2="100%"><stop offset="20%" stop-color="#e0dedb" stop-opacity="1"></stop><stop offset="80%" stop-color="#ffffff" stop-opacity="1"></stop></linearGradient></defs><g transform="translate(900, 0)"><path d="M0 405.6C-33.3 342.1 -66.6 278.6 -105.6 255C-144.6 231.4 -189.3 247.7 -239.7 239.7C-290.1 231.7 -346.1 199.2 -374.7 155.2C-403.3 111.2 -404.5 55.6 -405.6 0L0 0Z" fill="#efefed"></path><path d="M0 324.5C-26.6 273.7 -53.3 222.9 -84.5 204C-115.7 185.1 -151.5 198.2 -191.8 191.8C-232.1 185.3 -276.9 159.4 -299.8 124.2C-322.7 89 -323.6 44.5 -324.5 0L0 0Z" fill="#d1ceca"></path><path d="M0 243.4C-20 205.3 -40 167.1 -63.4 153C-86.8 138.8 -113.6 148.6 -143.8 143.8C-174.1 139 -207.7 119.5 -224.8 93.1C-242 66.7 -242.7 33.4 -243.4 0L0 0Z" fill="#b3afa8"></path><path d="M0 162.2C-13.3 136.8 -26.6 111.4 -42.2 102C-57.9 92.6 -75.7 99.1 -95.9 95.9C-116 92.7 -138.5 79.7 -149.9 62.1C-161.3 44.5 -161.8 22.2 -162.2 0L0 0Z" fill="#969187"></path><path d="M0 81.1C-6.7 68.4 -13.3 55.7 -21.1 51C-28.9 46.3 -37.9 49.5 -47.9 47.9C-58 46.3 -69.2 39.8 -74.9 31C-80.7 22.2 -80.9 11.1 -81.1 0L0 0Z" fill="#888277"></path></g><g transform="translate(0, 600)"><path d="M0 -405.6C55.7 -403.2 111.3 -400.8 155.2 -374.7C199.1 -348.7 231.3 -299 255.3 -255.3C279.2 -211.5 295 -173.6 318.7 -132C342.4 -90.5 374 -45.2 405.6 0L0 0Z" fill="#efefed"></path><path d="M0 -324.5C44.5 -322.6 89.1 -320.6 124.2 -299.8C159.3 -279 185 -239.2 204.2 -204.2C223.4 -169.2 236 -138.9 255 -105.6C273.9 -72.4 299.2 -36.2 324.5 0L0 0Z" fill="#d1ceca"></path><path d="M0 -243.4C33.4 -241.9 66.8 -240.5 93.1 -224.8C119.5 -209.2 138.8 -179.4 153.2 -153.2C167.5 -126.9 177 -104.2 191.2 -79.2C205.5 -54.3 224.4 -27.1 243.4 0L0 0Z" fill="#b3afa8"></path><path d="M0 -162.2C22.3 -161.3 44.5 -160.3 62.1 -149.9C79.7 -139.5 92.5 -119.6 102.1 -102.1C111.7 -84.6 118 -69.4 127.5 -52.8C137 -36.2 149.6 -18.1 162.2 0L0 0Z" fill="#969187"></path><path d="M0 -81.1C11.1 -80.6 22.3 -80.2 31 -74.9C39.8 -69.7 46.3 -59.8 51.1 -51.1C55.8 -42.3 59 -34.7 63.7 -26.4C68.5 -18.1 74.8 -9 81.1 0L0 0Z" fill="#888277"></path></g></svg>