<svg id="visual" viewBox="0 0 900 600" width="900" height="600" xmlns="http://www.w3.org/2000/svg" xmlns:xlink="http://www.w3.org/1999/xlink" version="1.1">
  <g>
    <g transform="translate(543 191)">
      <path d="M202.832,259.925C238.583,257.738,264.068,229.192,281.679,198.002C298.916,167.474,309.013,131.618,292.844,100.511C275.531,67.203,240.353,47.459,202.832,46.307C163.125,45.088,123.154,60.612,102.708,94.673C81.719,129.638,84.165,173.912,105.297,208.791C125.685,242.441,163.561,262.327,202.832,259.925" fill="rgba(250, 114, 104, 0.75)" class="triangle-float3"></path>
      <path d="M48 -56.3C61.9 -45.5 72.7 -30.1 77.2 -12.4C81.7 5.2 79.9 25.2 71.7 43.2C63.4 61.3 48.8 77.5 29.7 86.7C10.6 95.9 -13 98.2 -33.1 90.8C-53.1 83.5 -69.7 66.7 -81 46.9C-92.3 27.1 -98.3 4.3 -91.3 -12.8C-84.4 -30 -64.5 -41.6 -47.1 -51.7C-29.8 -61.9 -14.9 -70.5 1.1 -71.8C17 -73.1 34.1 -67 48 -56.3Z" fill="rgba(250, 114, 104, 0.75)" class="triangle-float2"></path></g><g transform="translate(750 8)">
      <path d="M27.2 -34.3C34.5 -26.3 39.1 -17 42.9 -6C46.8 5 49.8 17.8 45.4 26.9C40.9 36 29 41.4 17.1 44.8C5.2 48.1 -6.6 49.4 -18.2 46.6C-29.7 43.8 -41.1 37 -44.7 27.4C-48.3 17.8 -44.2 5.4 -40.3 -5.5C-36.5 -16.3 -32.8 -25.5 -26.1 -33.7C-19.4 -41.8 -9.7 -48.8 0.1 -48.9C10 -49 19.9 -42.3 27.2 -34.3Z" fill="rgba(250, 114, 104, 0.75)" class="triangle-float2"></path></g><g transform="translate(833 322)">
      <path d="M55.3 -62.3C70.8 -52.9 82 -34.7 83.4 -16.3C84.8 2.1 76.4 20.7 66.8 39.9C57.3 59.1 46.6 78.9 29.5 88C12.5 97.2 -10.9 95.7 -28.5 86C-46.1 76.3 -57.9 58.3 -68.4 39.7C-78.8 21.1 -87.9 2 -87.2 -17.8C-86.6 -37.6 -76.3 -58.1 -60.1 -67.4C-44 -76.8 -22 -74.9 -1.1 -73.7C19.9 -72.4 39.8 -71.8 55.3 -62.3Z" fill="rgba(250, 114, 104, 0.75)" class="triangle-float1"></path></g><g transform="translate(204 16)">
      <path d="M50.4 -60.1C67.2 -45.9 84.2 -31.9 90.3 -13.6C96.3 4.7 91.4 27.3 78.7 41.8C66 56.2 45.5 62.6 27.2 65C8.9 67.4 -7.3 65.9 -22 60.5C-36.8 55.2 -50.2 45.9 -59.1 32.9C-68.1 19.9 -72.6 3.2 -71.6 -14.3C-70.5 -31.8 -63.9 -50 -51 -65C-38.2 -80 -19.1 -91.8 -1.2 -90.4C16.7 -89 33.5 -74.4 50.4 -60.1Z" fill="rgba(250, 114, 104, 0.75)" class="triangle-float1"></path></g><g transform="translate(25 554)">
      <path d="M28.6 -34C35.8 -28 39.4 -17.8 42.2 -6.7C45 4.3 46.9 16.3 42.5 25C38 33.8 27.2 39.5 16.5 42C5.7 44.6 -5.1 44 -14.6 40.4C-24.2 36.8 -32.5 30.2 -39 21.4C-45.4 12.6 -49.8 1.5 -48.1 -8.6C-46.4 -18.6 -38.6 -27.6 -29.6 -33.3C-20.5 -38.9 -10.3 -41.1 0.2 -41.3C10.7 -41.6 21.4 -39.9 28.6 -34Z" fill="rgba(250, 114, 104, 0.75)" class="triangle-float3"></path></g><g transform="translate(492 501)">
      <path d="M39 -46.7C49.4 -37.7 55.9 -24.4 56.4 -11.5C56.8 1.4 51.1 13.8 44.5 26.1C37.9 38.3 30.3 50.4 18.6 57.4C6.9 64.3 -8.9 66.2 -19.6 59.8C-30.3 53.3 -35.9 38.6 -42.8 25.3C-49.7 12 -58 0.2 -57.7 -11.6C-57.3 -23.4 -48.3 -35.2 -37.3 -44C-26.2 -52.9 -13.1 -59 0.6 -59.7C14.3 -60.4 28.6 -55.8 39 -46.7Z" fill="rgba(250, 114, 104, 0.75)" class="triangle-float2"></path></g><g transform="translate(744 572)">
      <path d="M35.5 -43C44.8 -34.4 50.5 -22.2 54.8 -8.1C59 5.9 61.9 21.6 56.5 34.2C51.1 46.8 37.5 56.1 23.2 59.4C8.9 62.7 -5.9 60 -18.6 54.1C-31.2 48.2 -41.6 39.1 -49.7 27.5C-57.8 15.9 -63.6 1.8 -64 -14C-64.5 -29.9 -59.6 -47.5 -48 -55.7C-36.4 -63.9 -18.2 -62.7 -2.6 -59.6C13 -56.5 26.1 -51.6 35.5 -43Z" fill="rgba(250, 114, 104, 0.75)" class="triangle-float2"></path>
    </g>
  </g>
  <defs>
    <style>
      @keyframes float1 {
        0%{transform: translate(0, 0); scale: 1}
        50%{transform: translate(-15px, 15px); scale: 0.95}
        100%{transform: translate(0, 0) ; scale: 1}
      }

      .triangle-float1 {
        animation: float1 15s infinite;
      }

      @keyframes float2 {
        0%{transform: translate(0, 0); scale: 1}
        50%{transform: translate(-15px, -30px); scale: 1.2}
        100%{transform: translate(0, 0) ; scale: 1}
      }

      .triangle-float2 {
      animation: float2 22s infinite;
      }

      @keyframes float3 {
        0%{transform: translate(0, 0)}
        50%{transform: translate(10px, -15px); scale: 1.05}
        100%{transform: translate(0, 0)}
      }

      .triangle-float3 {
        animation: float3 s infinite;
      }
      </style>
  </defs>
</svg>