<svg xmlns="http://www.w3.org/2000/svg" version="1.1" xmlns:xlink="http://www.w3.org/1999/xlink" xmlns:svgjs="http://svgjs.com/svgjs" width="1440" height="560" preserveAspectRatio="none" viewBox="0 0 1440 560">
  <g mask="url(&quot;#SvgjsMask1053&quot;)" fill="none">
    <rect width="1440" height="560" x="0" y="0" fill="rgba(0, 0, 0, 0)"></rect>
    <path d="M1260.901,446.355C1287.176,445.271,1308.365,426.811,1320.875,403.68C1332.726,381.768,1334.07,355.576,1321.691,333.958C1309.237,312.209,1285.871,301.092,1260.901,298.947C1230.597,296.344,1195.049,295.938,1178.859,321.687C1162.074,348.381,1174.361,382.669,1191.696,409.01C1207.141,432.479,1232.83,447.513,1260.901,446.355" fill="rgba(250, 114, 104, 0.75)" class="triangle-float1"></path>
    <path d="M624.527,675.933C671.424,678.279,714.437,647.565,735.579,605.638C754.933,567.257,742.312,523.145,720.144,486.317C698.824,450.898,665.843,422.583,624.527,421.143C580.774,419.618,537.293,440.63,516.622,479.223C496.87,516.101,511.067,558.733,531.187,595.412C552.368,634.025,580.541,673.732,624.527,675.933" fill="rgba(250, 114, 104, 0.75)" class="triangle-float3"></path>
    <path d="M134.997,684.786C187.065,682.943,236.6,662.912,265.395,619.491C297.741,570.716,316.174,507.175,286.069,456.985C256.531,407.739,192.421,401.736,134.997,402.094C78.42,402.446,17.947,411.384,-12.848,458.847C-45.999,509.941,-45.784,578.362,-12.435,629.326C18.379,676.416,78.756,686.777,134.997,684.786" fill="rgba(250, 114, 104, 0.75)" class="triangle-float2"></path>
    <path d="M561.461,484.965C599.394,483.99,631.971,459.869,650.19,426.583C667.664,394.657,666.609,356.662,649.169,324.717C630.913,291.277,599.457,266.86,561.461,264.055C517.875,260.837,469.952,272.056,448.031,309.866C426.063,347.757,440.654,394.595,464.467,431.355C485.994,464.586,521.88,485.982,561.461,484.965" fill="rgba(250, 114, 104, 0.75)" class="triangle-float3"></path>
    <path d="M202.832,259.925C238.583,257.738,264.068,229.192,281.679,198.002C298.916,167.474,309.013,131.618,292.844,100.511C275.531,67.203,240.353,47.459,202.832,46.307C163.125,45.088,123.154,60.612,102.708,94.673C81.719,129.638,84.165,173.912,105.297,208.791C125.685,242.441,163.561,262.327,202.832,259.925" fill="rgba(250, 114, 104, 0.75)" class="triangle-float3"></path>
    <path d="M1340.63,339.469C1380.382,340.134,1418.32,317.054,1435.411,281.157C1450.725,248.992,1434.007,213.619,1414.848,183.584C1397.544,156.458,1372.739,134.631,1340.63,132.572C1304.569,130.259,1266.785,142.091,1247.862,172.875C1228.17,204.909,1232.892,245.222,1251.186,278.075C1270.042,311.938,1301.876,338.821,1340.63,339.469" fill="rgba(250, 114, 104, 0.75)" class="triangle-float3"></path>
    <path d="M546.089,468.016C562.232,468.425,575.493,456.45,583.252,442.288C590.684,428.724,591.221,412.627,583.902,399.001C576.154,384.576,562.46,373.427,546.089,373.105C529.214,372.773,513.218,382.395,505.608,397.46C498.6,411.332,504.319,427.001,512.053,440.482C519.836,454.048,530.454,467.62,546.089,468.016" fill="rgba(250, 114, 104, 0.75)" class="triangle-float2"></path>
    <path d="M1395.618,297.711C1420.041,298.284,1443.386,287.101,1456.433,266.447C1470.437,244.277,1474.487,216.079,1461.614,193.233C1448.536,170.022,1422.258,158.846,1395.618,158.513C1368.317,158.172,1339.547,167.454,1326.705,191.549C1314.39,214.656,1325.298,241.741,1339.555,263.704C1352.31,283.353,1372.198,297.161,1395.618,297.711" fill="rgba(250, 114, 104, 0.75)" class="triangle-float3"></path>
    <path d="M1179.672,535.578C1214.197,536.047,1237.226,504.054,1254.102,473.931C1270.478,444.7,1281.025,411.041,1266.304,380.942C1249.835,347.269,1217.14,322.862,1179.672,321.749C1140.37,320.582,1100.45,339.971,1083.646,375.518C1068.434,407.697,1090.352,441.433,1108.664,471.955C1126.187,501.164,1145.613,535.115,1179.672,535.578" fill="rgba(250, 114, 104, 0.75)" class="triangle-float1"></path>
    <path d="M865.629,611.319C899.344,610.387,929.609,591.964,946.644,562.854C963.862,533.431,966.683,497.101,949.798,467.485C932.763,437.606,900.014,419.972,865.629,420.757C832.526,421.513,805.056,442.883,787.867,471.184C769.869,500.818,759.646,537.24,776.469,567.556C793.686,598.583,830.159,612.299,865.629,611.319" fill="rgba(250, 114, 104, 0.75)" class="triangle-float2"></path>
  </g>
  <defs>
    <mask id="SvgjsMask1053">
      <rect width="1440" height="560" fill="#ffffff"></rect>
    </mask>
    <style>
      @keyframes float1 {
      0%{transform: translate(0, 0); scale: 1}
      50%{transform: translate(-15px, 15px); scale: 0.95}
      100%{transform: translate(0, 0) ; scale: 1}
      }

      .triangle-float1 {
      animation: float1 30s infinite;
      }

      @keyframes float2 {
      0%{transform: translate(0, 0); scale: 1}
      50%{transform: translate(-15px, -30px); scale: 1.2}
      100%{transform: translate(0, 0) ; scale: 1}
      }

      .triangle-float2 {
      animation: float2 45s infinite;
      }

      @keyframes float3 {
      0%{transform: translate(0, 0)}
      50%{transform: translate(10px, -15px); scale: 1.05}
      100%{transform: translate(0, 0)}
      }

      .triangle-float3 {
      animation: float3 30s infinite;
      }
      </style>
  </defs>
</svg>