<svg id="visual" viewBox="0 0 900 600" width="900" height="600" xmlns="http://www.w3.org/2000/svg" xmlns:xlink="http://www.w3.org/1999/xlink" version="1.1"><path d="M0 538L21.5 533.5C43 529 86 520 128.8 514.7C171.7 509.3 214.3 507.7 257.2 510.7C300 513.7 343 521.3 385.8 524.8C428.7 528.3 471.3 527.7 514.2 523.7C557 519.7 600 512.3 642.8 511.2C685.7 510 728.3 515 771.2 521C814 527 857 534 878.5 537.5L900 541L900 601L878.5 601C857 601 814 601 771.2 601C728.3 601 685.7 601 642.8 601C600 601 557 601 514.2 601C471.3 601 428.7 601 385.8 601C343 601 300 601 257.2 601C214.3 601 171.7 601 128.8 601C86 601 43 601 21.5 601L0 601Z" fill="#fa7268"></path><path d="M0 534L21.5 537.5C43 541 86 548 128.8 549.7C171.7 551.3 214.3 547.7 257.2 545.2C300 542.7 343 541.3 385.8 539.7C428.7 538 471.3 536 514.2 535.7C557 535.3 600 536.7 642.8 537.3C685.7 538 728.3 538 771.2 537.7C814 537.3 857 536.7 878.5 536.3L900 536L900 601L878.5 601C857 601 814 601 771.2 601C728.3 601 685.7 601 642.8 601C600 601 557 601 514.2 601C471.3 601 428.7 601 385.8 601C343 601 300 601 257.2 601C214.3 601 171.7 601 128.8 601C86 601 43 601 21.5 601L0 601Z" fill="#eb5967"></path><path d="M0 562L21.5 560.2C43 558.3 86 554.7 128.8 554C171.7 553.3 214.3 555.7 257.2 557.7C300 559.7 343 561.3 385.8 559.7C428.7 558 471.3 553 514.2 552.5C557 552 600 556 642.8 558.3C685.7 560.7 728.3 561.3 771.2 558.5C814 555.7 857 549.3 878.5 546.2L900 543L900 601L878.5 601C857 601 814 601 771.2 601C728.3 601 685.7 601 642.8 601C600 601 557 601 514.2 601C471.3 601 428.7 601 385.8 601C343 601 300 601 257.2 601C214.3 601 171.7 601 128.8 601C86 601 43 601 21.5 601L0 601Z" fill="#da3f67"></path><path d="M0 571L21.5 573.5C43 576 86 581 128.8 583.5C171.7 586 214.3 586 257.2 585.2C300 584.3 343 582.7 385.8 582.5C428.7 582.3 471.3 583.7 514.2 581.2C557 578.7 600 572.3 642.8 572.3C685.7 572.3 728.3 578.7 771.2 579.2C814 579.7 857 574.3 878.5 571.7L900 569L900 601L878.5 601C857 601 814 601 771.2 601C728.3 601 685.7 601 642.8 601C600 601 557 601 514.2 601C471.3 601 428.7 601 385.8 601C343 601 300 601 257.2 601C214.3 601 171.7 601 128.8 601C86 601 43 601 21.5 601L0 601Z" fill="#c62368"></path></svg>