<svg id="visual" viewBox="0 0 900 600" width="900" height="600" xmlns="http://www.w3.org/2000/svg" xmlns:xlink="http://www.w3.org/1999/xlink" version="1.1"><rect x="0" y="0" width="900" height="600" fill="#ffffff"></rect><defs><linearGradient id="grad1_0" x1="33.3%" y1="0%" x2="100%" y2="100%"><stop offset="20%" stop-color="#fa7268" stop-opacity="1"></stop><stop offset="80%" stop-color="#fa7268" stop-opacity="1"></stop></linearGradient></defs><defs><linearGradient id="grad1_1" x1="33.3%" y1="0%" x2="100%" y2="100%"><stop offset="20%" stop-color="#fa7268" stop-opacity="1"></stop><stop offset="80%" stop-color="#ffbab1" stop-opacity="1"></stop></linearGradient></defs><defs><linearGradient id="grad1_2" x1="33.3%" y1="0%" x2="100%" y2="100%"><stop offset="20%" stop-color="#ffffff" stop-opacity="1"></stop><stop offset="80%" stop-color="#ffbab1" stop-opacity="1"></stop></linearGradient></defs><defs><linearGradient id="grad2_0" x1="0%" y1="0%" x2="66.7%" y2="100%"><stop offset="20%" stop-color="#fa7268" stop-opacity="1"></stop><stop offset="80%" stop-color="#fa7268" stop-opacity="1"></stop></linearGradient></defs><defs><linearGradient id="grad2_1" x1="0%" y1="0%" x2="66.7%" y2="100%"><stop offset="20%" stop-color="#ffbab1" stop-opacity="1"></stop><stop offset="80%" stop-color="#fa7268" stop-opacity="1"></stop></linearGradient></defs><defs><linearGradient id="grad2_2" x1="0%" y1="0%" x2="66.7%" y2="100%"><stop offset="20%" stop-color="#ffbab1" stop-opacity="1"></stop><stop offset="80%" stop-color="#ffffff" stop-opacity="1"></stop></linearGradient></defs><g transform="translate(900, 0)"><path d="M0 351.5C-59.5 339.5 -119 327.4 -173 299.6C-227 271.9 -275.6 228.3 -304.4 175.8C-333.3 123.2 -342.4 61.6 -351.5 0L0 0Z" fill="#ffddd7"></path><path d="M0 234.4C-39.7 226.3 -79.3 218.3 -115.3 199.8C-151.4 181.2 -183.7 152.2 -203 117.2C-222.2 82.1 -228.3 41.1 -234.4 0L0 0Z" fill="#ff978c"></path><path d="M0 117.2C-19.8 113.2 -39.7 109.1 -57.7 99.9C-75.7 90.6 -91.9 76.1 -101.5 58.6C-111.1 41.1 -114.1 20.5 -117.2 0L0 0Z" fill="#fa7268"></path></g><g transform="translate(0, 600)"><path d="M0 -351.5C69.3 -346.9 138.7 -342.2 175.8 -304.4C212.9 -266.7 217.7 -195.8 241.6 -139.5C265.5 -83.2 308.5 -41.6 351.5 0L0 0Z" fill="#ffddd7"></path><path d="M0 -234.4C46.2 -231.3 92.5 -228.1 117.2 -203C141.9 -177.8 145.1 -130.5 161.1 -93C177 -55.5 205.7 -27.7 234.4 0L0 0Z" fill="#ff978c"></path><path d="M0 -117.2C23.1 -115.6 46.2 -114.1 58.6 -101.5C71 -88.9 72.6 -65.3 80.5 -46.5C88.5 -27.7 102.8 -13.9 117.2 0L0 0Z" fill="#fa7268"></path></g></svg>